<svg xmlns="http://www.w3.org/2000/svg" width="116" height="60" fill="none" class="text-secondary"><path fill="currentColor" d="M58.223 12.4c-.734-2.468-2.23-4.23-5.011-4.55-2.95-.34-5.015.91-6.433 3.418-2.629 4.64-5.269 9.276-7.89 13.92-1.097 1.95-2.156 3.918-3.335 6.066-.363-.551-.594-.856-.777-1.184-3.488-6.245-6.968-12.498-10.46-18.74-1.187-2.124-2.874-3.495-5.437-3.534-3.058-.047-5.132 1.469-6.108 4.71-1.707 5.656-3.375 11.323-5.046 16.986q-.772 2.615-1.543 5.23l-.063.016-.46 1.617h.042l.707.02.079.073 1.527 1.508q.053-.025.105-.04a.678.678 0 1 1 .328 1.316.673.673 0 0 1-.82-.491.67.67 0 0 1 .02-.394c-.043-.032-.079-.067-.11-.094l-1.355-1.34-.637-.02h-.043l-.918 3.192.032.03.793.825.94-.234 1.485 1.538.184.192-.266.933.695.723.906-.227.367-1.273 1.457-.363.66-.164.145.152.773.8 1.094-.269.531-1.851-1.703-1.601-.031.011a.684.684 0 0 1-.824-.496.68.68 0 0 1 .496-.824.68.68 0 0 1 .824.496.68.68 0 0 1-.05.457l1.452 1.363h.004l.836-2.902-.035-.035c1.066-3.91 2.097-7.819 3.144-11.733.379-1.406.753-2.816 1.222-4.577.399.629.582.879.727 1.152 2.976 5.632 5.971 11.256 8.905 16.912 1.25 2.41 3.042 3.765 5.839 3.831 2.898.063 4.784-1.3 6.081-3.76 1.543-2.934 3.148-5.836 4.69-8.773 1.59-3.027 3.137-6.077 4.91-9.522.809 3.023 1.457 5.597 2.21 8.135.157.528.677 1.332 1.055 1.348 3.023.11 6.054.062 9.304.062-1.785-6.206-3.453-12.135-5.214-18.04M8.499 36.39a.68.68 0 0 1 .496-.82c.16-.043.32-.02.457.05l2.09-2.187.378.39-2.113 2.211.012.028a.68.68 0 0 1-1.32.328m2.37 1.605-.034 1.445-.075.078-.89.918q.022.051.039.11a.68.68 0 0 1-.496.82.677.677 0 0 1-.824-.492.682.682 0 0 1 .89-.805.6.6 0 0 1 .094-.105l.723-.746.035-1.446 2.644-2.862.379.394zM6.488 42.24l-.5-.519-1.309.324-.055.192-.32 1.105.938.973 1.308-.325.375-1.296z"></path><path fill="currentColor" d="m10.463 43.338-.3 1.05.761.79 1.063-.266.3-1.05-.761-.79zM4.91 46.373l-.16.554.402.414.558-.14.16-.55-.402-.419zM6.98 45.185l-.258.89.644.665.895-.223.257-.89-.644-.664zM9.182 40.444a.272.272 0 1 0 .133.527.27.27 0 0 0 .195-.328.273.273 0 0 0-.328-.2M9.42 36.163a.27.27 0 0 0-.327-.199.273.273 0 0 0-.2.328.277.277 0 0 0 .332.2.27.27 0 0 0 .196-.329M12.416 38.382a.27.27 0 0 0-.195.332.267.267 0 0 0 .328.195.273.273 0 0 0 .2-.328.275.275 0 0 0-.333-.2M8.35 38.839a.273.273 0 0 0 .2-.328.273.273 0 0 0-.328-.2.27.27 0 0 0-.2.328.27.27 0 0 0 .329.2M49.306 38.92v2.6q.025.299.1.424.075.113.312.162l-.05 1.263q-.637 0-1.024-.088a2.3 2.3 0 0 1-.763-.35 4.16 4.16 0 0 1-1.837.438q-1.937 0-1.937-2.05 0-1 .537-1.412.537-.425 1.65-.5l1.337-.1v-.388q0-.387-.175-.524-.175-.15-.562-.15l-2.35.1-.05-1.163a9.7 9.7 0 0 1 2.537-.362q1.212 0 1.738.5.537.5.537 1.6m-2.812 1.65q-.7.06-.7.75 0 .686.612.687.475 0 1.038-.15l.187-.05v-1.338zm9.72-6.1v8.749h-1.662v-.263q-.874.413-1.512.413-1.363 0-1.9-.788t-.538-2.487q0-1.711.638-2.487.65-.787 1.95-.787.4 0 1.112.125l.237.05V34.47zm-1.85 7.25.175-.038v-3.288a7 7 0 0 0-1.224-.124q-1.013 0-1.013 1.8 0 .975.225 1.387t.738.412q.525 0 1.1-.15m8.185-2.8v2.6q.024.299.1.424.075.113.312.162l-.05 1.263q-.637 0-1.025-.088a2.3 2.3 0 0 1-.762-.35 4.16 4.16 0 0 1-1.837.438q-1.938 0-1.938-2.05 0-1 .538-1.412.537-.425 1.65-.5l1.337-.1v-.388q0-.387-.175-.524-.175-.15-.562-.15l-2.35.1-.05-1.163a9.7 9.7 0 0 1 2.537-.362q1.212 0 1.737.5.538.5.538 1.6m-2.812 1.65q-.7.06-.7.75 0 .686.612.687.476 0 1.038-.15l.187-.05v-1.338zm6.083 2.649h-1.675v-6.25h1.663v.35q.861-.5 1.474-.5 1.012 0 1.563.588 1.149-.587 2.1-.587 1.236 0 1.712.725.487.712.487 2.287v3.387H71.47v-3.337q0-.8-.175-1.175-.174-.388-.7-.388-.4 0-.974.175l-.188.063q.05.938.05 1.425v3.237h-1.675v-3.212q0-.925-.162-1.3-.162-.388-.713-.388-.487 0-.962.175l-.15.05zm8.735-2.562v-1.525h3.7v1.525zm9.664-2.125q-1.551-.2-2.175-.2-.613 0-.8.112-.175.112-.175.363 0 .237.237.337.25.088 1.25.275 1.012.175 1.438.588.424.412.424 1.337 0 2.025-2.512 2.025-.825 0-2-.225l-.4-.075.05-1.4q1.55.2 2.15.2.614 0 .825-.112.225-.126.225-.363t-.237-.35q-.225-.112-1.2-.275-.962-.162-1.437-.55-.475-.387-.475-1.375 0-.999.675-1.5.675-.512 1.737-.512.737 0 2.012.238l.412.075zm3.083 4.687h-1.675V34.47h1.675v2.8q.861-.45 1.55-.45 1.249 0 1.724.737.475.738.475 2.275v3.387h-1.675v-3.35q0-.787-.187-1.162-.188-.388-.75-.388a3.3 3.3 0 0 0-.975.15l-.162.05zm5.233 0v-6.25h1.675v6.25zm0-7.05V34.47h1.675v1.7zm4.897 7.05h-1.675V34.47h1.675v4.974l.637-.112 1.238-2.362h1.875l-1.625 2.962 1.712 3.287h-1.887l-1.263-2.437-.687.112zm4.757 0v-6.25h1.675v6.25zm0-7.05V34.47h1.675v1.7zm4.897 7.05h-1.674v-6.25h1.662v.35q.85-.5 1.562-.5 1.25 0 1.725.738t.475 2.275v3.387h-1.675v-3.337q0-.8-.187-1.175-.187-.388-.75-.388-.513 0-.988.175l-.15.05zm5.234 0v-6.25h1.675v6.25zm0-7.05V34.47h1.675v1.7z"></path></svg>