<svg width="154" height="46" viewBox="0 0 154 46" fill="none" xmlns="http://www.w3.org/2000/svg">
<path d="M50.1291 14.4022H44.4658L41.5528 26.9741H51.5624L50.1291 14.4022ZM77.7702 14.4022H72.107L69.194 26.9741H79.2019L77.7702 14.4022ZM77.7702 14.4022H72.107L69.194 26.9741H79.2019L77.7702 14.4022ZM44.4658 14.4022L41.5528 26.9741H51.5624L50.1291 14.4022H44.4658ZM149.487 0H65.3984L60.8097 0.901307L57.7324 0H2.34031L0 46H46.5084L47.6383 40.7304H48.6519L50.7563 46H74.1512L75.2795 40.7304H76.293L78.3974 46H95.0326L94.9821 45.6575L112.301 45.961L114.499 46H131.346L131.883 40.5791L137.522 41.1144L138.951 46H153.192L149.487 0ZM3.77524 41.6749L4.95475 5.77145L36.7868 4.32595L33.3841 15.3979L13.9532 14.403L13.4586 33.917L24.2507 33.934L25.1455 28.0235L18.3027 28.5473L18.7192 21.2897L33.4866 20.6072L29.7675 41.6741H3.77524V41.6749ZM81.3275 41.6749L79.2247 36.4053H71.7808L70.6525 41.6749H53.6871L51.5827 36.4053H44.1404L43.0106 41.6749H30.2792L38.1673 4.38045H38.1689L39.3655 4.32595H57.1126L60.608 28.9728L65.819 4.32595H84.7538L90.0461 41.6749H81.3275ZM90.862 41.2128L86.9411 4.32595H116.758L116.84 15.3271L99.1185 15.6663L98.9388 31.9622L108.842 32.43L108.981 29.1949L105.653 28.5473L106.068 21.2897L117.069 20.7813L117.116 41.6749L90.8612 41.2136L90.862 41.2128ZM138.974 36.4053L128.041 35.3649L130.402 41.6741H117.67L118.549 4.32513H144.503L149.797 41.6741H141.078L138.974 36.4045V36.4053ZM127.951 13.1584L124.817 27.9332L138.953 26.9741L137.519 14.4022L127.951 13.1584ZM72.107 14.4022L69.194 26.9741H79.2019L77.7702 14.4022H72.107ZM44.4658 14.4022L41.5528 26.9741H51.5624L50.1291 14.4022H44.4658ZM50.1291 14.4022H44.4658L41.5528 26.9741H51.5624L50.1291 14.4022ZM77.7702 14.4022H72.107L69.194 26.9741H79.2019L77.7702 14.4022ZM77.7702 14.4022H72.107L69.194 26.9741H79.2019L77.7702 14.4022ZM50.1291 14.4022H44.4658L41.5528 26.9741H51.5624L50.1291 14.4022Z" fill="#FDC500"/>
</svg>
